<?xml version="1.0" encoding="utf-8"?>
<!-- Generator: Adobe Illustrator 21.0.0, SVG Export Plug-In . SVG Version: 6.00 Build 0)  -->
<svg version="1.1" id="Layer_1" xmlns="http://www.w3.org/2000/svg" xmlns:xlink="http://www.w3.org/1999/xlink" x="0px" y="0px"
	 viewBox="0 0 100 100" enable-background="new 0 0 100 100" xml:space="preserve">
<g>
	<g>
		<polygon fill="#010101" points="41,44 16.1,44 16.1,56 41,56 47,50 		"/>
		<polygon fill="none" points="53,56 77.9,56 77.9,44 53,44 47,50 		"/>
		<polygon fill="#010101" points="41,55.5 41,80.4 53,80.4 53,55.5 47,49.5 		"/>
		<polygon fill="#010101" points="53,44 53,19.1 41,19.1 41,44 47,50 		"/>
	</g>
	<g>
		<polygon fill="#ED2690" points="57.4,54 42.6,54 42.6,66 57.4,66 63.4,60 		"/>
		<polygon fill="#ED2690" points="69.1,54.6 69.1,39.8 57.1,39.8 57.1,54.6 63.1,60.6 		"/>
		<polygon fill="#ED2690" points="57.1,66.1 57.1,80.9 69.1,80.9 69.1,66.1 63.1,60.1 		"/>
		<polygon fill="#ED2690" points="69.1,66 83.9,66 83.9,54 69.1,54 63.1,60 		"/>
	</g>
</g>
</svg>
