<?xml version="1.0" encoding="UTF-8"?>
<svg width="155px" height="27px" viewBox="0 0 155 27" version="1.1" xmlns="http://www.w3.org/2000/svg" xmlns:xlink="http://www.w3.org/1999/xlink">
    <!-- Generator: Sketch 49.1 (51147) - http://www.bohemiancoding.com/sketch -->
    <title>logo nav</title>
    <desc>Created with Sketch.</desc>
    <defs>
        <polygon id="path-1" points="0.119841463 0.353014609 15.3317683 0.353014609 15.3317683 20.8005241 0.119841463 20.8005241"></polygon>
    </defs>
    <g id="Symbols" stroke="none" stroke-width="1" fill="none" fill-rule="evenodd">
        <g id="nav" transform="translate(-23.000000, -17.000000)">
            <g id="logo-nav">
                <g transform="translate(23.000000, 17.000000)">
                    <polygon id="Fill-1" fill="#FF0098" points="88 9.29440257 85.7052248 7 81.5001863 11.2054111 77.2944026 7 75 9.29440257 79.2054111 13.4998137 75 17.7052248 77.2944026 20 81.5001863 15.7945889 85.7052248 20 88 17.7052248 83.7945889 13.4998137"></polygon>
                    <g id="Group-25">
                        <path d="M4.25191463,14.9275332 C4.55132927,17.4577684 6.01853659,18.4580508 9.07317073,18.4580508 C11.2889146,18.4580508 13.2354878,17.6928886 13.2354878,15.7513826 C13.2354878,13.6917593 11.198939,13.2798346 7.9352439,12.5443875 C4.10258537,11.6911946 0.598829268,10.6909122 0.598829268,6.30720177 C0.598829268,2.15861153 4.04209756,0.0109574189 8.80362195,0.0109574189 C13.6245,0.0109574189 16.7388659,2.33541598 17.0681463,6.57203701 L12.9062073,6.57203701 C12.6665244,4.4537265 10.9895,3.39438552 8.7737561,3.39438552 C6.43779268,3.39438552 4.91047561,4.36532427 4.91047561,5.86593351 C4.91047561,7.57194792 6.40792683,8.07227481 9.58240244,8.74903472 C13.9840244,9.69025843 17.577378,10.7202558 17.577378,15.2510557 C17.577378,19.5170203 14.074,21.9001661 9.2527439,21.9001661 C3.44326829,21.9001661 0.149707317,19.3699309 0,14.9275332 L4.25191463,14.9275332 Z" id="Fill-2" fill="#FFFFFF"></path>
                        <g id="Group-6" transform="translate(18.146341, 5.571569)">
                            <mask id="mask-2" fill="white">
                                <use xlink:href="#path-1"></use>
                            </mask>
                            <g id="Clip-5"></g>
                            <path d="M11.1993171,8.4436756 C11.1993171,5.58991798 10.1816098,3.58935329 7.66569512,3.58935329 C5.12067073,3.58935329 4.10258537,5.7370074 4.10258537,8.4436756 C4.10258537,11.1800588 5.39021951,12.9744755 7.81578049,12.9744755 C9.88181707,12.9744755 11.1993171,11.2978047 11.1993171,8.4436756 Z M0.119841463,0.764939273 L4.04247561,0.764939273 L4.04247561,2.64775814 L4.13245122,2.64775814 C5.12067073,1.32395336 6.5580122,0.353014609 8.65429268,0.353014609 C12.7266341,0.353014609 15.3317683,3.61869689 15.3317683,8.32630121 C15.3317683,13.2099671 12.6370366,16.2992164 8.68415854,16.2992164 C6.52814634,16.2992164 5.12067073,15.4460235 4.25229268,14.1515623 L4.19256098,14.1515623 L4.19256098,20.8006726 L0.119841463,20.8006726 L0.119841463,0.764939273 Z" id="Fill-4" fill="#FFFFFF" mask="url(#mask-2)"></path>
                        </g>
                        <path d="M43.6299293,16.1042115 L43.6299293,13.8388115 C42.9112585,14.2507362 41.8031976,14.4862278 40.7851122,14.7213481 C38.6589659,15.1923313 37.6110146,15.6633146 37.6110146,17.0751502 C37.6110146,18.4873572 38.5689902,18.9876841 40.0063317,18.9876841 C42.3422951,18.9876841 43.6299293,17.5754771 43.6299293,16.1042115 M43.5996854,19.7524748 L43.5399537,19.7524748 C42.7611732,20.8998466 41.6531122,21.7823831 39.0184902,21.7823831 C35.8738805,21.7823831 33.6581366,20.1643995 33.6581366,17.1635524 C33.6581366,13.8388115 36.412978,12.779842 39.8267585,12.3088587 C42.372161,11.9559927 43.5399537,11.7498446 43.5399537,10.6024728 C43.5399537,9.51415971 42.6715756,8.80768477 40.9646854,8.80768477 C39.0483561,8.80768477 38.1198683,9.48481612 38.0000268,10.9263667 L34.3768073,10.9263667 C34.4966488,8.27838572 36.5025756,5.95392715 40.9945512,5.95392715 C45.6063683,5.95392715 47.4629659,7.98420688 47.4629659,11.5147244 L47.4629659,19.1934607 C47.4629659,20.3408325 47.642161,21.0175924 48.0013073,21.2820562 L48.0013073,21.4295171 L44.0786732,21.4295171 C43.8393683,21.1353382 43.689661,20.4292347 43.5996854,19.7524748" id="Fill-7" fill="#FFFFFF"></path>
                        <path d="M52.6126329,8.74910901 L52.7022305,8.74910901 C53.6307183,7.04272316 54.6790476,6.1598152 56.4755354,6.1598152 C56.9246573,6.1598152 57.1942061,6.18915879 57.433889,6.27793246 L57.433889,9.77873495 L57.3439134,9.77873495 C54.6790476,9.51427114 52.7623402,10.8967631 52.7623402,14.0744146 L52.7623402,21.4296285 L48.6899988,21.4296285 L48.6899988,6.33661965 L52.6126329,6.33661965 L52.6126329,8.74910901 Z" id="Fill-9" fill="#FFFFFF"></path>
                        <polygon id="Fill-11" fill="#FFFFFF" points="63.8721354 14.5448407 62.1055134 16.3396288 62.1055134 21.4294428 58.0630378 21.4294428 58.0630378 0.393427055 62.1055134 0.393427055 62.1055134 12.0443206 67.5550866 6.33643393 72.4360744 6.33643393 66.7770622 12.0736642 73.1252573 21.4294428 68.1841598 21.4294428"></polygon>
                        <path d="M97.5449024,13.691685 L103.204671,13.691685 L101.288341,7.6313037 C100.928817,6.51327553 100.419963,4.39496502 100.419963,4.39496502 L100.360232,4.39496502 C100.360232,4.39496502 99.8211341,6.51327553 99.4616098,7.6313037 L97.5449024,13.691685 Z M98.1739756,0.393464199 L102.665573,0.393464199 L110.211805,21.4294799 L105.689963,21.4294799 L104.253,16.9573672 L96.5275732,16.9573672 L95.1193415,21.4294799 L90.7177195,21.4294799 L98.1739756,0.393464199 Z" id="Fill-13" fill="#FFFFFF"></path>
                        <path d="M109.163967,16.5456654 L112.936894,16.5456654 C113.206443,18.2813949 114.464211,19.0461856 116.290943,19.0461856 C118.08743,19.0461856 119.105516,18.3697971 119.105516,17.3108276 C119.105516,15.8689055 117.158943,15.7218161 115.06304,15.3098915 C112.307821,14.780221 109.612711,14.0451453 109.612711,10.749748 C109.612711,7.48406571 112.36793,5.92439784 115.871309,5.92439784 C119.914162,5.92439784 122.16015,7.89599037 122.459187,10.926181 L118.776235,10.926181 C118.596662,9.30819738 117.548333,8.7198397 115.811577,8.7198397 C114.224906,8.7198397 113.176199,9.30819738 113.176199,10.3965105 C113.176199,11.6913431 115.212748,11.8087175 117.398248,12.2503572 C119.973894,12.7796563 122.818711,13.4857598 122.818711,17.0166487 C122.818711,20.0468394 120.183333,21.870971 116.350674,21.870971 C111.888565,21.870971 109.403272,19.7526605 109.163967,16.5456654" id="Fill-15" fill="#FFFFFF"></path>
                        <path d="M122.249483,6.33658251 L124.375251,6.33658251 L124.375251,1.62897819 L128.357995,1.62897819 L128.357995,6.33658251 L130.993373,6.33658251 L130.993373,8.98456351 L128.357995,8.98456351 L128.357995,16.9868223 C128.357995,18.1052219 128.987068,18.4874315 129.884934,18.4874315 C130.394544,18.4874315 131.083349,18.4580879 131.083349,18.4580879 L131.083349,21.4002478 C131.083349,21.4002478 130.154483,21.4589349 128.537568,21.4589349 C126.561507,21.4589349 124.375251,20.6937728 124.375251,17.8403866 L124.375251,8.98456351 L122.249483,8.98456351 L122.249483,6.33658251 Z" id="Fill-17" fill="#FFFFFF"></path>
                        <path d="M134.387684,12.2502086 L141.215623,12.2502086 C141.095026,10.3380462 139.808148,9.01386996 137.951172,9.01386996 C135.79516,9.01386996 134.747209,10.2789876 134.387684,12.2502086 M130.315721,13.8681923 C130.315721,9.39607959 133.399843,5.9246207 137.89144,5.9246207 C142.832538,5.9246207 145.46716,9.63157124 145.46716,15.015564 L134.327952,15.015564 C134.627745,17.3400226 135.944867,18.7815732 138.250965,18.7815732 C139.837635,18.7815732 140.765745,18.0758411 141.215623,16.9280979 L145.227855,16.9280979 C144.658513,19.6054225 142.233709,21.8708225 138.280452,21.8708225 C133.190026,21.8708225 130.315721,18.37002 130.315721,13.8681923" id="Fill-19" fill="#FFFFFF"></path>
                        <path d="M150.078901,8.74910901 L150.168877,8.74910901 C151.096987,7.04272316 152.145694,6.1598152 153.942182,6.1598152 C154.390926,6.1598152 154.660474,6.18915879 154.900535,6.27793246 L154.900535,9.77873495 L154.81056,9.77873495 C152.145694,9.51427114 150.228609,10.8967631 150.228609,14.0744146 L150.228609,21.4296285 L146.156645,21.4296285 L146.156645,6.33661965 L150.078901,6.33661965 L150.078901,8.74910901 Z" id="Fill-21" fill="#FFFFFF"></path>
                        <polygon id="Fill-23" fill="#FFFFFF" points="89.2647268 12.2656233 83.2303122 12.2656233 83.2303122 6.33673108 79.9375073 6.33673108 79.9375073 12.2656233 73.9030927 12.2656233 73.9030927 15.5004763 79.9375073 15.5004763 79.9375073 21.4293685 83.2303122 21.4293685 83.2303122 15.5004763 89.2647268 15.5004763"></polygon>
                    </g>
                </g>
            </g>
        </g>
    </g>
</svg>