<?xml version="1.0" encoding="utf-8"?>
<!-- Generator: Adobe Illustrator 21.0.0, SVG Export Plug-In . SVG Version: 6.00 Build 0)  -->
<svg version="1.1" id="Layer_1" xmlns="http://www.w3.org/2000/svg" xmlns:xlink="http://www.w3.org/1999/xlink" x="0px" y="0px"
	 viewBox="0 0 100 100" enable-background="new 0 0 100 100" xml:space="preserve">
<g>
	<g>
		<polygon fill="#ED2690" points="41.5,32.8 30.8,22.1 22.1,30.8 32.8,41.5 41.5,41.5 		"/>
		<polygon fill="#ED2690" points="32.8,58.5 22.1,69.2 30.8,77.9 41.5,67.2 41.5,58.5 		"/>
		<polygon fill="#ED2690" points="58.5,67.2 69.2,77.9 77.9,69.2 67.2,58.5 58.5,58.5 		"/>
		<polygon fill="#ED2690" points="67.2,41.5 77.9,30.8 69.2,22.1 58.5,32.8 58.5,41.5 		"/>
	</g>
	<g>
		<polygon fill="#010101" points="56.2,41.7 56.2,16.3 43.8,16.3 43.8,41.7 50,47.9 		"/>
		<polygon fill="#010101" points="41.7,43.8 16.3,43.8 16.3,56.2 41.7,56.2 47.9,50 		"/>
		<polygon fill="#010101" points="43.8,58.3 43.8,83.7 56.2,83.7 56.2,58.3 50,52.1 		"/>
		<polygon fill="#010101" points="58.3,56.2 83.7,56.2 83.7,43.8 58.3,43.8 52.1,50 		"/>
	</g>
</g>
</svg>
